%FSTAX25Y25*%
%MOIN*%
%SFA1B1*%

%IPPOS*%
%ADD26C,0.074930*%
%ADD27C,0.045400*%
%ADD28O,0.067060X0.114300*%
%ADD29O,0.067060X0.137920*%
%ADD30R,0.067060X0.067060*%
%ADD31C,0.067060*%
%ADD32R,0.047370X0.047370*%
%ADD33C,0.047370*%
%ADD34R,0.067060X0.067060*%
%LNhdmi_breakout_pcb_v02-1*%
%LPD*%
G54D26*
X0262Y0468D03*
G54D27*
X0262Y0448315D03*
X0267906D03*
X0273811D03*
X0279717D03*
X0256094D03*
X0250189D03*
X0244283D03*
X0246252Y045422D03*
X0252157D03*
X0258063D03*
X0263969D03*
X0269874D03*
X027578D03*
X024822Y0442409D03*
X0254126D03*
X0260032D03*
X0265937D03*
X0271843D03*
X0277748D03*
G54D28*
X0290346Y0475087D03*
X0234441D03*
G54D29*
X0290346Y0451465D03*
X0234441D03*
G54D30*
X0316Y0406D03*
G54D31*
X0316Y0416D03*
Y0426D03*
Y0436D03*
X0298Y0394D03*
G54D32*
X0212441Y0392063D03*
G54D33*
X0220315Y0392063D03*
X0228189D03*
X0236063D03*
X0243937D03*
X0251811D03*
X0259685D03*
X0267559D03*
X0212441Y0399937D03*
X0220315D03*
X0228189D03*
X0236063D03*
X0243937D03*
X0251811D03*
X0259685D03*
X0267559D03*
G54D34*
X0288Y0394D03*
M02*