%FSTAX25Y25*%
%MOIN*%
%SFA1B1*%

%IPPOS*%
%ADD10C,0.012000*%
%ADD11C,0.007000*%
%ADD13C,0.066930*%
%ADD14C,0.037400*%
%ADD15O,0.059060X0.106300*%
%ADD16O,0.059060X0.129920*%
%ADD17R,0.059060X0.059060*%
%ADD18C,0.059060*%
%ADD19R,0.039370X0.039370*%
%ADD20C,0.039370*%
%ADD21R,0.059060X0.059060*%
%LNhdmi_breakout_pcb_v02-1*%
%LPD*%
G36*
X03235Y03845D02*
X0201354D01*
X0201002Y0384854*
X0201375Y0466252*
X0201875Y0466271*
X0201889Y0466082*
X0202339Y0464211*
X0203075Y0462433*
X020408Y0460793*
X020533Y045933*
X0206793Y045808*
X0208433Y0457075*
X0210211Y0456339*
X0212082Y045589*
X0214Y0455739*
X0215918Y045589*
X0217789Y0456339*
X0219567Y0457075*
X0221207Y045808*
X022267Y045933*
X022392Y0460793*
X0224925Y0462433*
X0225661Y0464211*
X0226111Y0466082*
X0226261Y0468*
X0226111Y0469918*
X0225661Y0471789*
X0224925Y0473567*
X022392Y0475207*
X022267Y047667*
X0221207Y047792*
X0219567Y0478925*
X0217789Y0479661*
X0215918Y0480111*
X0214Y0480261*
X0212082Y0480111*
X0210211Y0479661*
X0208433Y0478925*
X0206793Y047792*
X020533Y047667*
X020408Y0475207*
X0203075Y0473567*
X0202339Y0471789*
X0201889Y0469918*
X0201392Y0469957*
X02015Y04935*
X03235*
Y03845*
G37*
%LNhdmi_breakout_pcb_v02-2*%
%LPC*%
G36*
X0236063Y0402629D02*
X0235366Y0402537D01*
X0234717Y0402268*
X023416Y040184*
X0233732Y0401283*
X0233463Y0400634*
X0233371Y0399937*
X0233463Y039924*
X0233732Y0398591*
X023416Y0398034*
X0234717Y0397606*
X0235366Y0397337*
X0236063Y0397246*
X023676Y0397337*
X0237409Y0397606*
X0237966Y0398034*
X0238394Y0398591*
X0238663Y039924*
X0238755Y0399937*
X0238663Y0400634*
X0238394Y0401283*
X0237966Y040184*
X0237409Y0402268*
X023676Y0402537*
X0236063Y0402629*
G37*
G36*
X0291653Y0397653D02*
X0284347D01*
Y0390347*
X0291653*
Y0397653*
G37*
G36*
X0212441Y0402629D02*
X0211744Y0402537D01*
X0211095Y0402268*
X0210538Y040184*
X021011Y0401283*
X0209841Y0400634*
X020975Y0399937*
X0209841Y039924*
X021011Y0398591*
X0210538Y0398034*
X0211095Y0397606*
X0211744Y0397337*
X0212441Y0397246*
X0213138Y0397337*
X0213787Y0397606*
X0214344Y0398034*
X0214772Y0398591*
X0215041Y039924*
X0215132Y0399937*
X0215041Y0400634*
X0214772Y0401283*
X0214344Y040184*
X0213787Y0402268*
X0213138Y0402537*
X0212441Y0402629*
G37*
G36*
X0259685D02*
X0258988Y0402537D01*
X0258339Y0402268*
X0257782Y040184*
X0257354Y0401283*
X0257085Y0400634*
X0256994Y0399937*
X0257085Y039924*
X0257354Y0398591*
X0257782Y0398034*
X0258339Y0397606*
X0258988Y0397337*
X0259685Y0397246*
X0260382Y0397337*
X0261031Y0397606*
X0261588Y0398034*
X0262016Y0398591*
X0262285Y039924*
X0262376Y0399937*
X0262285Y0400634*
X0262016Y0401283*
X0261588Y040184*
X0261031Y0402268*
X0260382Y0402537*
X0259685Y0402629*
G37*
G36*
X0267559D02*
X0266862Y0402537D01*
X0266213Y0402268*
X0265656Y040184*
X0265228Y0401283*
X0264959Y0400634*
X0264867Y0399937*
X0264959Y039924*
X0265228Y0398591*
X0265656Y0398034*
X0266213Y0397606*
X0266862Y0397337*
X0267559Y0397246*
X0268256Y0397337*
X0268905Y0397606*
X0269462Y0398034*
X026989Y0398591*
X0270159Y039924*
X0270251Y0399937*
X0270159Y0400634*
X026989Y0401283*
X0269462Y040184*
X0268905Y0402268*
X0268256Y0402537*
X0267559Y0402629*
G37*
G36*
X0243937D02*
X024324Y0402537D01*
X0242591Y0402268*
X0242034Y040184*
X0241606Y0401283*
X0241337Y0400634*
X0241246Y0399937*
X0241337Y039924*
X0241606Y0398591*
X0242034Y0398034*
X0242591Y0397606*
X024324Y0397337*
X0243937Y0397246*
X0244634Y0397337*
X0245283Y0397606*
X024584Y0398034*
X0246268Y0398591*
X0246537Y039924*
X0246628Y0399937*
X0246537Y0400634*
X0246268Y0401283*
X024584Y040184*
X0245283Y0402268*
X0244634Y0402537*
X0243937Y0402629*
G37*
G36*
X0251811D02*
X0251114Y0402537D01*
X0250465Y0402268*
X0249908Y040184*
X024948Y0401283*
X0249211Y0400634*
X0249119Y0399937*
X0249211Y039924*
X024948Y0398591*
X0249908Y0398034*
X0250465Y0397606*
X0251114Y0397337*
X0251811Y0397246*
X0252508Y0397337*
X0253157Y0397606*
X0253714Y0398034*
X0254142Y0398591*
X0254411Y039924*
X0254503Y0399937*
X0254411Y0400634*
X0254142Y0401283*
X0253714Y040184*
X0253157Y0402268*
X0252508Y0402537*
X0251811Y0402629*
G37*
G36*
X0298Y0397684D02*
X0297046Y0397559D01*
X0296158Y0397191*
X0295395Y0396605*
X0294809Y0395842*
X0294441Y0394954*
X0294316Y0394*
X0294441Y0393046*
X0294809Y0392158*
X0295395Y0391395*
X0296158Y0390809*
X0297046Y0390441*
X0298Y0390316*
X0298954Y0390441*
X0299842Y0390809*
X0300605Y0391395*
X0301191Y0392158*
X0301559Y0393046*
X0301684Y0394*
X0301559Y0394954*
X0301191Y0395842*
X0300605Y0396605*
X0299842Y0397191*
X0298954Y0397559*
X0298Y0397684*
G37*
G36*
X0243937Y0394755D02*
X024324Y0394663D01*
X0242591Y0394394*
X0242034Y0393966*
X0241606Y0393409*
X0241337Y039276*
X0241246Y0392063*
X0241337Y0391366*
X0241606Y0390717*
X0242034Y039016*
X0242591Y0389732*
X024324Y0389463*
X0243937Y0389371*
X0244634Y0389463*
X0245283Y0389732*
X024584Y039016*
X0246268Y0390717*
X0246537Y0391366*
X0246628Y0392063*
X0246537Y039276*
X0246268Y0393409*
X024584Y0393966*
X0245283Y0394394*
X0244634Y0394663*
X0243937Y0394755*
G37*
G36*
X0236063D02*
X0235366Y0394663D01*
X0234717Y0394394*
X023416Y0393966*
X0233732Y0393409*
X0233463Y039276*
X0233371Y0392063*
X0233463Y0391366*
X0233732Y0390717*
X023416Y039016*
X0234717Y0389732*
X0235366Y0389463*
X0236063Y0389371*
X023676Y0389463*
X0237409Y0389732*
X0237966Y039016*
X0238394Y0390717*
X0238663Y0391366*
X0238755Y0392063*
X0238663Y039276*
X0238394Y0393409*
X0237966Y0393966*
X0237409Y0394394*
X023676Y0394663*
X0236063Y0394755*
G37*
G36*
X0220315D02*
X0219618Y0394663D01*
X0218969Y0394394*
X0218412Y0393966*
X0217984Y0393409*
X0217715Y039276*
X0217623Y0392063*
X0217715Y0391366*
X0217984Y0390717*
X0218412Y039016*
X0218969Y0389732*
X0219618Y0389463*
X0220315Y0389371*
X0221012Y0389463*
X0221661Y0389732*
X0222218Y039016*
X0222646Y0390717*
X0222915Y0391366*
X0223007Y0392063*
X0222915Y039276*
X0222646Y0393409*
X0222218Y0393966*
X0221661Y0394394*
X0221012Y0394663*
X0220315Y0394755*
G37*
G36*
X0251811D02*
X0251114Y0394663D01*
X0250465Y0394394*
X0249908Y0393966*
X024948Y0393409*
X0249211Y039276*
X0249119Y0392063*
X0249211Y0391366*
X024948Y0390717*
X0249908Y039016*
X0250465Y0389732*
X0251114Y0389463*
X0251811Y0389371*
X0252508Y0389463*
X0253157Y0389732*
X0253714Y039016*
X0254142Y0390717*
X0254411Y0391366*
X0254503Y0392063*
X0254411Y039276*
X0254142Y0393409*
X0253714Y0393966*
X0253157Y0394394*
X0252508Y0394663*
X0251811Y0394755*
G37*
G36*
X0215109Y0394731D02*
X0209772D01*
Y0389394*
X0215109*
Y0394731*
G37*
G36*
X0267559Y0394755D02*
X0266862Y0394663D01*
X0266213Y0394394*
X0265656Y0393966*
X0265228Y0393409*
X0264959Y039276*
X0264867Y0392063*
X0264959Y0391366*
X0265228Y0390717*
X0265656Y039016*
X0266213Y0389732*
X0266862Y0389463*
X0267559Y0389371*
X0268256Y0389463*
X0268905Y0389732*
X0269462Y039016*
X026989Y0390717*
X0270159Y0391366*
X0270251Y0392063*
X0270159Y039276*
X026989Y0393409*
X0269462Y0393966*
X0268905Y0394394*
X0268256Y0394663*
X0267559Y0394755*
G37*
G36*
X0259685D02*
X0258988Y0394663D01*
X0258339Y0394394*
X0257782Y0393966*
X0257354Y0393409*
X0257085Y039276*
X0256994Y0392063*
X0257085Y0391366*
X0257354Y0390717*
X0257782Y039016*
X0258339Y0389732*
X0258988Y0389463*
X0259685Y0389371*
X0260382Y0389463*
X0261031Y0389732*
X0261588Y039016*
X0262016Y0390717*
X0262285Y0391366*
X0262376Y0392063*
X0262285Y039276*
X0262016Y0393409*
X0261588Y0393966*
X0261031Y0394394*
X0260382Y0394663*
X0259685Y0394755*
G37*
G36*
X02785Y0459071D02*
X0273654D01*
X0273244Y0458989*
X0272897Y0458757*
X0270771Y0456631*
X0270545Y0456724*
X0269874Y0456813*
X0269203Y0456724*
X0268578Y0456465*
X0268041Y0456053*
X0267629Y0455516*
X026737Y0454891*
X0267282Y045422*
X026737Y0453549*
X0267629Y0452924*
X0268041Y0452387*
X0268578Y0451975*
X0269203Y0451717*
X0269874Y0451628*
X0270545Y0451717*
X027117Y0451975*
X0271707Y0452387*
X0272119Y0452924*
X0272378Y0453549*
X0272466Y045422*
X0272378Y0454891*
X0272285Y0455117*
X0273444Y0456277*
X0274354Y0456653*
X0274409Y045664*
X0274471Y0456456*
X0273947Y0456053*
X0273535Y0455516*
X0273276Y0454891*
X0273187Y045422*
X0273276Y0453549*
X0273535Y0452924*
X0273947Y0452387*
X0274483Y0451975*
X0275109Y0451717*
X027578Y0451628*
X027645Y0451717*
X0277076Y0451975*
X0277613Y0452387*
X0278025Y0452924*
X0278284Y0453549*
X0278372Y045422*
X0278284Y0454891*
X0278025Y0455516*
X0277613Y0456053*
X0277076Y0456465*
X027645Y0456724*
X027578Y0456813*
X0275896Y0456929*
X0278057*
X0283429Y0451556*
Y04455*
X0283511Y044509*
X0283743Y0444743*
X0293243Y0435243*
X029359Y0435011*
X0294Y0434929*
X031249*
X0312809Y0434158*
X0313395Y0433395*
X0314158Y0432809*
X0315046Y0432441*
X0316Y0432316*
X0316954Y0432441*
X0317842Y0432809*
X0318605Y0433395*
X0319191Y0434158*
X0319559Y0435046*
X0319684Y0436*
X0319559Y0436954*
X0319191Y0437842*
X0318605Y0438605*
X0317842Y0439191*
X0316954Y0439559*
X0316Y0439684*
X0315046Y0439559*
X0314158Y0439191*
X0313395Y0438605*
X0312809Y0437842*
X031249Y0437071*
X0294443*
X0285571Y0445943*
Y0452*
X0285489Y045241*
X0285257Y0452757*
X0279257Y0458757*
X027891Y0458989*
X02785Y0459071*
G37*
G36*
X0263969Y0456813D02*
X0263298Y0456724D01*
X0262672Y0456465*
X0262136Y0456053*
X0261724Y0455516*
X026163Y0455291*
X0260401*
X0260308Y0455516*
X0259896Y0456053*
X0259359Y0456465*
X0258734Y0456724*
X0258063Y0456813*
X0257392Y0456724*
X0256767Y0456465*
X025623Y0456053*
X0255818Y0455516*
X0255725Y0455291*
X0254496*
X0254402Y0455516*
X025399Y0456053*
X0253453Y0456465*
X0252828Y0456724*
X0252157Y0456813*
X0251486Y0456724*
X0250861Y0456465*
X0250324Y0456053*
X0249912Y0455516*
X0249819Y0455291*
X024859*
X0248497Y0455516*
X0248085Y0456053*
X0247548Y0456465*
X0246923Y0456724*
X0246252Y0456813*
X0245581Y0456724*
X0244956Y0456465*
X0244419Y0456053*
X024403Y0455546*
X024222*
X0241713Y0455445*
X0241283Y0455158*
X0239563Y0453437*
X0239275Y0453007*
X0239175Y04525*
Y0445049*
X0227252Y0433126*
X0226964Y0432696*
X0226864Y0432189*
Y0402276*
X0226843Y0402268*
X0226286Y040184*
X0225858Y0401283*
X022585Y0401263*
X0222654*
X0222646Y0401283*
X0222218Y040184*
X0221661Y0402268*
X0221012Y0402537*
X0220315Y0402629*
X0219618Y0402537*
X0218969Y0402268*
X0218412Y040184*
X0217984Y0401283*
X0217715Y0400634*
X0217623Y0399937*
X0217715Y039924*
X0217984Y0398591*
X0218412Y0398034*
X0218969Y0397606*
X0219618Y0397337*
X0220315Y0397246*
X0221012Y0397337*
X0221661Y0397606*
X0222218Y0398034*
X0222646Y0398591*
X0222654Y0398611*
X022585*
X0225858Y0398591*
X0226286Y0398034*
X0226843Y0397606*
X0226864Y0397598*
Y0394402*
X0226843Y0394394*
X0226286Y0393966*
X0225858Y0393409*
X0225589Y039276*
X0225498Y0392063*
X0225589Y0391366*
X0225858Y0390717*
X0226286Y039016*
X0226843Y0389732*
X0227492Y0389463*
X0228189Y0389371*
X0228886Y0389463*
X0229535Y0389732*
X0230092Y039016*
X023052Y0390717*
X0230789Y0391366*
X023088Y0392063*
X0230789Y039276*
X023052Y0393409*
X0230092Y0393966*
X0229535Y0394394*
X0229515Y0394402*
Y0397598*
X0229535Y0397606*
X0230092Y0398034*
X023052Y0398591*
X0230789Y039924*
X023088Y0399937*
X0230789Y0400634*
X023052Y0401283*
X0230092Y040184*
X0229535Y0402268*
X0229515Y0402276*
Y043164*
X0241437Y0443563*
X0241725Y0443993*
X0241826Y04445*
Y0446519*
X0242299Y0446679*
X024245Y0446482*
X0242987Y044607*
X0243613Y0445811*
X0244283Y0445723*
X0244954Y0445811*
X024558Y044607*
X0246116Y0446482*
X0246528Y0447019*
X0246787Y0447644*
X0246876Y0448315*
X0246787Y0448986*
X0246528Y0449611*
X0246116Y0450148*
X024558Y045056*
X0244954Y0450819*
X0244283Y0450907*
X0243613Y0450819*
X0242987Y045056*
X024245Y0450148*
X0242299Y0449951*
X0241826Y0450111*
Y0451951*
X0242769Y0452895*
X024403*
X0244419Y0452387*
X0244956Y0451975*
X0245581Y0451717*
X0246252Y0451628*
X0246923Y0451717*
X0247548Y0451975*
X0248085Y0452387*
X0248497Y0452924*
X024859Y045315*
X0249819*
X0249912Y0452924*
X0250324Y0452387*
X0250861Y0451975*
X0251486Y0451717*
X0252157Y0451628*
X0252828Y0451717*
X0253453Y0451975*
X025399Y0452387*
X0254402Y0452924*
X0254496Y045315*
X0255725*
X0255818Y0452924*
X025623Y0452387*
X0256767Y0451975*
X0257392Y0451717*
X0258063Y0451628*
X0258734Y0451717*
X0259359Y0451975*
X0259896Y0452387*
X0260308Y0452924*
X0260401Y045315*
X026163*
X0261724Y0452924*
X0262136Y0452387*
X0262672Y0451975*
X0263298Y0451717*
X0263969Y0451628*
X0264639Y0451717*
X0265265Y0451975*
X0265802Y0452387*
X0266214Y0452924*
X0266473Y0453549*
X0266561Y045422*
X0266473Y0454891*
X0266214Y0455516*
X0265802Y0456053*
X0265265Y0456465*
X0264639Y0456724*
X0263969Y0456813*
G37*
G36*
X0279717Y0450907D02*
X0279046Y0450819D01*
X027842Y045056*
X0277884Y0450148*
X0277472Y0449611*
X0277213Y0448986*
X0277124Y0448315*
X0277213Y0447644*
X0277472Y0447019*
X0277602Y0446848*
X0277381Y04464*
X0276146*
X0275925Y0446848*
X0276056Y0447019*
X0276315Y0447644*
X0276403Y0448315*
X0276315Y0448986*
X0276056Y0449611*
X0275644Y0450148*
X0275107Y045056*
X0274482Y0450819*
X0273811Y0450907*
X027314Y0450819*
X0272515Y045056*
X0271978Y0450148*
X0271566Y0449611*
X0271307Y0448986*
X0271219Y0448315*
X0271307Y0447644*
X0271566Y0447019*
X0271978Y0446482*
X0272515Y044607*
X027314Y0445811*
X027318Y0445806*
X0274413Y0444572*
X0274761Y044434*
X027517Y0444259*
X0275362*
X0275584Y0443811*
X0275503Y0443706*
X0275244Y044308*
X0275156Y0442409*
X0275244Y0441739*
X0275503Y0441113*
X0275915Y0440576*
X0276452Y0440164*
X0277077Y0439906*
X0277748Y0439817*
X0278419Y0439906*
X0279044Y0440164*
X0279581Y0440576*
X0279993Y0441113*
X0280252Y0441739*
X0280294Y0442058*
X0280767Y0442218*
X0297743Y0425243*
X029809Y0425011*
X02985Y0424929*
X031249*
X0312809Y0424158*
X0313395Y0423395*
X0314158Y0422809*
X0315046Y0422441*
X0316Y0422316*
X0316954Y0422441*
X0317842Y0422809*
X0318605Y0423395*
X0319191Y0424158*
X0319559Y0425046*
X0319684Y0426*
X0319559Y0426954*
X0319191Y0427842*
X0318605Y0428605*
X0317842Y0429191*
X0316954Y0429559*
X0316Y0429684*
X0315046Y0429559*
X0314158Y0429191*
X0313395Y0428605*
X0312809Y0427842*
X031249Y0427071*
X0298943*
X0280341Y0445673*
X0280387Y0445811*
X0281013Y044607*
X028155Y0446482*
X0281962Y0447019*
X0282221Y0447644*
X0282309Y0448315*
X0282221Y0448986*
X0281962Y0449611*
X028155Y0450148*
X0281013Y045056*
X0280387Y0450819*
X0279717Y0450907*
G37*
G36*
X0262D02*
X0261329Y0450819D01*
X0260704Y045056*
X0260167Y0450148*
X0259755Y0449611*
X0259496Y0448986*
X0259408Y0448315*
X0259496Y0447644*
X0259755Y0447019*
X0260167Y0446482*
X0260704Y044607*
X0261329Y0445811*
X0262Y0445723*
X0262671Y0445811*
X0263296Y044607*
X0263833Y0446482*
X0264245Y0447019*
X0264504Y0447644*
X0264592Y0448315*
X0264504Y0448986*
X0264245Y0449611*
X0263833Y0450148*
X0263296Y045056*
X0262671Y0450819*
X0262Y0450907*
G37*
G36*
X031Y0480261D02*
X0308082Y0480111D01*
X0306211Y0479661*
X0304433Y0478925*
X0302793Y047792*
X030133Y047667*
X030008Y0475207*
X0299075Y0473567*
X0298339Y0471789*
X0297889Y0469918*
X0297739Y0468*
X0297889Y0466082*
X0298339Y0464211*
X0299075Y0462433*
X030008Y0460793*
X030133Y045933*
X0302793Y045808*
X0304433Y0457075*
X0306211Y0456339*
X0308082Y045589*
X031Y0455739*
X0311918Y045589*
X0313789Y0456339*
X0315567Y0457075*
X0317207Y045808*
X031867Y045933*
X031992Y0460793*
X0320925Y0462433*
X0321661Y0464211*
X0322111Y0466082*
X0322261Y0468*
X0322111Y0469918*
X0321661Y0471789*
X0320925Y0473567*
X031992Y0475207*
X031867Y047667*
X0317207Y047792*
X0315567Y0478925*
X0313789Y0479661*
X0311918Y0480111*
X031Y0480261*
G37*
G36*
X0290346Y0481133D02*
X0289393Y0481007D01*
X0288504Y048064*
X0287741Y0480054*
X0287156Y0479291*
X0286788Y0478402*
X0286662Y0477449*
Y0472724*
X0286788Y0471771*
X0287156Y0470882*
X0287741Y0470119*
X0288504Y0469534*
X0289393Y0469166*
X0290346Y046904*
X02913Y0469166*
X0292189Y0469534*
X0292952Y0470119*
X0293537Y0470882*
X0293905Y0471771*
X0294031Y0472724*
Y0477449*
X0293905Y0478402*
X0293537Y0479291*
X0292952Y0480054*
X0292189Y048064*
X02913Y0481007*
X0290346Y0481133*
G37*
G36*
X0234441D02*
X0233487Y0481007D01*
X0232599Y048064*
X0231836Y0480054*
X023125Y0479291*
X0230882Y0478402*
X0230757Y0477449*
Y0472724*
X0230882Y0471771*
X023125Y0470882*
X0231836Y0470119*
X0232599Y0469534*
X0233487Y0469166*
X0234441Y046904*
X0235395Y0469166*
X0236283Y0469534*
X0237046Y0470119*
X0237632Y0470882*
X0238Y0471771*
X0238125Y0472724*
Y0477449*
X0238Y0478402*
X0237632Y0479291*
X0237046Y0480054*
X0236283Y048064*
X0235395Y0481007*
X0234441Y0481133*
G37*
G36*
X0262Y0472081D02*
X0260944Y0471942D01*
X0259959Y0471535*
X0259114Y0470886*
X0258465Y0470041*
X0258058Y0469056*
X0257919Y0468*
X0258058Y0466944*
X0258465Y0465959*
X0259114Y0465114*
X0259959Y0464465*
X0260944Y0464058*
X0262Y0463919*
X0263056Y0464058*
X0264041Y0464465*
X0264886Y0465114*
X0265535Y0465959*
X0265942Y0466944*
X0266081Y0468*
X0265942Y0469056*
X0265535Y0470041*
X0264886Y0470886*
X0264041Y0471535*
X0263056Y0471942*
X0262Y0472081*
G37*
G36*
X0256094Y0450907D02*
X0255423Y0450819D01*
X0254798Y045056*
X0254261Y0450148*
X0253849Y0449611*
X025359Y0448986*
X0253502Y0448315*
X025359Y0447644*
X0253849Y0447019*
X0254261Y0446482*
X0254798Y044607*
X0255423Y0445811*
X0256094Y0445723*
X0256765Y0445811*
X025739Y044607*
X0257927Y0446482*
X0258339Y0447019*
X0258598Y0447644*
X0258687Y0448315*
X0258598Y0448986*
X0258339Y0449611*
X0257927Y0450148*
X025739Y045056*
X0256765Y0450819*
X0256094Y0450907*
G37*
G36*
X0260032Y0445002D02*
X0259361Y0444913D01*
X0258735Y0444654*
X0258199Y0444242*
X0257787Y0443706*
X0257528Y044308*
X0257439Y0442409*
X0257528Y0441739*
X0257787Y0441113*
X0258199Y0440576*
X0258735Y0440164*
X0259361Y0439906*
X0260032Y0439817*
X0260702Y0439906*
X0261328Y0440164*
X0261865Y0440576*
X0262277Y0441113*
X0262536Y0441739*
X0262624Y0442409*
X0262536Y044308*
X0262277Y0443706*
X0261865Y0444242*
X0261328Y0444654*
X0260702Y0444913*
X0260032Y0445002*
G37*
G36*
X0254126D02*
X0253455Y0444913D01*
X025283Y0444654*
X0252293Y0444242*
X0251881Y0443706*
X0251622Y044308*
X0251534Y0442409*
X0251622Y0441739*
X0251881Y0441113*
X0252293Y0440576*
X025283Y0440164*
X0253455Y0439906*
X0254126Y0439817*
X0254797Y0439906*
X0255422Y0440164*
X0255959Y0440576*
X0256371Y0441113*
X025663Y0441739*
X0256718Y0442409*
X025663Y044308*
X0256371Y0443706*
X0255959Y0444242*
X0255422Y0444654*
X0254797Y0444913*
X0254126Y0445002*
G37*
G36*
X024822D02*
X024755Y0444913D01*
X0246924Y0444654*
X0246387Y0444242*
X0245975Y0443706*
X0245717Y044308*
X0245628Y0442409*
X0245717Y0441739*
X0245975Y0441113*
X0246387Y0440576*
X0246924Y0440164*
X024755Y0439906*
X024822Y0439817*
X0248891Y0439906*
X0249517Y0440164*
X0250053Y0440576*
X0250465Y0441113*
X0250724Y0441739*
X0250813Y0442409*
X0250724Y044308*
X0250465Y0443706*
X0250053Y0444242*
X0249517Y0444654*
X0248891Y0444913*
X024822Y0445002*
G37*
G36*
X0234441Y0458692D02*
X0233487Y0458567D01*
X0232599Y0458199*
X0231836Y0457613*
X023125Y045685*
X0230882Y0455962*
X0230757Y0455008*
Y0447921*
X0230882Y0446968*
X023125Y0446079*
X0231836Y0445316*
X0232599Y0444731*
X0233487Y0444363*
X0234441Y0444237*
X0235395Y0444363*
X0236283Y0444731*
X0237046Y0445316*
X0237632Y0446079*
X0238Y0446968*
X0238125Y0447921*
Y0455008*
X0238Y0455962*
X0237632Y045685*
X0237046Y0457613*
X0236283Y0458199*
X0235395Y0458567*
X0234441Y0458692*
G37*
G36*
X0250189Y0450907D02*
X0249518Y0450819D01*
X0248893Y045056*
X0248356Y0450148*
X0247944Y0449611*
X0247685Y0448986*
X0247597Y0448315*
X0247685Y0447644*
X0247944Y0447019*
X0248356Y0446482*
X0248893Y044607*
X0249518Y0445811*
X0250189Y0445723*
X025086Y0445811*
X0251485Y044607*
X0252022Y0446482*
X0252434Y0447019*
X0252693Y0447644*
X0252781Y0448315*
X0252693Y0448986*
X0252434Y0449611*
X0252022Y0450148*
X0251485Y045056*
X025086Y0450819*
X0250189Y0450907*
G37*
G36*
X0267906D02*
X0267235Y0450819D01*
X026661Y045056*
X0266073Y0450148*
X0265661Y0449611*
X0265402Y0448986*
X0265313Y0448315*
X0265402Y0447644*
X0265661Y0447019*
X0266073Y0446482*
X026661Y044607*
X0267235Y0445811*
X0267787Y0445738*
Y0444795*
X0267338Y0444574*
X0267233Y0444654*
X0266608Y0444913*
X0265937Y0445002*
X0265266Y0444913*
X0264641Y0444654*
X0264104Y0444242*
X0263692Y0443706*
X0263433Y044308*
X0263345Y0442409*
X0263433Y0441739*
X0263692Y0441113*
X0264104Y0440576*
X0264641Y0440164*
X0265266Y0439906*
X0265937Y0439817*
X0266608Y0439906*
X0267233Y0440164*
X0267334Y0440242*
X0267802Y0440066*
X0267868Y0439733*
X02681Y0439386*
X0302243Y0405243*
X030259Y0405011*
X0303Y0404929*
X0312347*
Y0402347*
X0319653*
Y0409653*
X0312347*
Y0407071*
X0303443*
X0271073Y0439441*
X0271294Y0439889*
X0271843Y0439817*
X0272514Y0439906*
X0272739Y0439999*
X0297495Y0415243*
X0297842Y0415011*
X0298252Y0414929*
X031249*
X0312809Y0414158*
X0313395Y0413395*
X0314158Y0412809*
X0315046Y0412441*
X0316Y0412316*
X0316954Y0412441*
X0317842Y0412809*
X0318605Y0413395*
X0319191Y0414158*
X0319559Y0415046*
X0319684Y0416*
X0319559Y0416954*
X0319191Y0417842*
X0318605Y0418605*
X0317842Y0419191*
X0316954Y0419559*
X0316Y0419684*
X0315046Y0419559*
X0314158Y0419191*
X0313395Y0418605*
X0312809Y0417842*
X031249Y0417071*
X0298695*
X0274253Y0441513*
X0274346Y0441739*
X0274435Y0442409*
X0274346Y044308*
X0274088Y0443706*
X0273676Y0444242*
X0273139Y0444654*
X0272514Y0444913*
X0271843Y0445002*
X0271172Y0444913*
X0270547Y0444654*
X0270376Y0444524*
X0269928Y0444745*
Y0446728*
X0270151Y0447019*
X0270409Y0447644*
X0270498Y0448315*
X0270409Y0448986*
X0270151Y0449611*
X0269739Y0450148*
X0269202Y045056*
X0268577Y0450819*
X0267906Y0450907*
G37*
G36*
X0290346Y0458692D02*
X0289393Y0458567D01*
X0288504Y0458199*
X0287741Y0457613*
X0287156Y045685*
X0286788Y0455962*
X0286662Y0455008*
Y0447921*
X0286788Y0446968*
X0287156Y0446079*
X0287741Y0445316*
X0288504Y0444731*
X0289393Y0444363*
X0290346Y0444237*
X02913Y0444363*
X0292189Y0444731*
X0292952Y0445316*
X0293537Y0446079*
X0293905Y0446968*
X0294031Y0447921*
Y0455008*
X0293905Y0455962*
X0293537Y045685*
X0292952Y0457613*
X0292189Y0458199*
X02913Y0458567*
X0290346Y0458692*
G37*
%LNhdmi_breakout_pcb_v02-3*%
%LPD*%
G54D10*
X024222Y045422D02*
X0246252D01*
X02405Y04525D02*
X024222Y045422D01*
X02405Y04445D02*
Y04525D01*
X0228189Y0432189D02*
X02405Y04445D01*
X0228189Y0399937D02*
Y0432189D01*
Y0392063D02*
Y0399937D01*
X0220315D02*
X0228189D01*
G54D11*
X02985Y0426D02*
X0316D01*
X027917Y044533D02*
X02985Y0426D01*
X027517Y044533D02*
X027917D01*
X0273811Y0446689D02*
X027517Y044533D01*
X0273811Y0446689D02*
Y0448315D01*
X02845Y04455D02*
Y0452D01*
X02785Y0458D02*
X02845Y0452D01*
X0273654Y0458D02*
X02785D01*
X02845Y04455D02*
X0294Y0436D01*
X0316*
X0269874Y045422D02*
X0273654Y0458D01*
X0267906Y0448315D02*
X0268857Y0447364D01*
Y0440143D02*
Y0447364D01*
Y0440143D02*
X0303Y0406D01*
X0316*
X0271843Y0442409D02*
X0298252Y0416D01*
X0316*
X0258063Y045422D02*
X0263969D01*
X0252157D02*
X0258063D01*
X0246252D02*
X0252157D01*
G54D13*
X0262Y0468D03*
G54D14*
X0262Y0448315D03*
X0267906D03*
X0273811D03*
X0279717D03*
X0256094D03*
X0250189D03*
X0244283D03*
X0246252Y045422D03*
X0252157D03*
X0258063D03*
X0263969D03*
X0269874D03*
X027578D03*
X024822Y0442409D03*
X0254126D03*
X0260032D03*
X0265937D03*
X0271843D03*
X0277748D03*
G54D15*
X0290346Y0475087D03*
X0234441D03*
G54D16*
X0290346Y0451465D03*
X0234441D03*
G54D17*
X0316Y0406D03*
G54D18*
X0316Y0416D03*
Y0426D03*
Y0436D03*
X0298Y0394D03*
G54D19*
X0212441Y0392063D03*
G54D20*
X0220315Y0392063D03*
X0228189D03*
X0236063D03*
X0243937D03*
X0251811D03*
X0259685D03*
X0267559D03*
X0212441Y0399937D03*
X0220315D03*
X0228189D03*
X0236063D03*
X0243937D03*
X0251811D03*
X0259685D03*
X0267559D03*
G54D21*
X0288Y0394D03*
M02*